<svg xmlns="http://www.w3.org/2000/svg" viewBox="0 0 24 24" fill="currentColor">
  <path d="M12 2.2c3.2 0 3.6 0 4.8.1 1.2.1 1.9.3 2.3.5.6.3 1 .6 1.5 1.1.5.5.8.9 1.1 1.5.2.4.4 1.1.5 2.3.1 1.2.1 1.6.1 4.8s0 3.6-.1 4.8c-.1 1.2-.3 1.9-.5 2.3-.3.6-.6 1-.9 1.4-.5.5-.9.8-1.5 1.1-.4.2-1.1.4-2.3.5-1.2.1-1.6.1-4.8.1s-3.6 0-4.8-.1c-1.2-.1-1.9-.3-2.3-.5-.6-.3-1-.6-1.5-1.1-.5-.5-.8-.9-1.1-1.5-.2-.4-.4-1.1-.5-2.3C2.2 15.6 2.2 15.2 2.2 12s0-3.6.1-4.8c.1-1.2.3-1.9.5-2.3.3-.6.6-1 .9-1.4.5-.5.9-.8 1.5-1.1.4-.2 1.1-.4 2.3-.5C8.4 2.2 8.8 2.2 12 2.2m0-2.2C8.7 0 8.3 0 7.1.1 5.9.2 4.9.4 4.1.8 3.3 1.2 2.6 1.7 1.9 2.4.9 3.4.3 4.6.1 6 .1 7.2 0 7.6 0 12s.1 4.8.1 6c.1 1.4.8 2.6 1.8 3.6.7.7 1.4 1.2 2.2 1.6.8.3 1.8.6 3 .7 1.2.1 1.6.1 4.9.1s3.7 0 4.9-.1c1.2-.1 2.2-.4 3-.7.8-.3 1.5-.8 2.2-1.6 1-1 1.7-2.2 1.8-3.6.1-1.2.1-1.6.1-6s0-4.8-.1-6c-.1-1.4-.8-2.6-1.8-3.6C21.4 1.2 20.7.7 20 .3c-.8-.4-1.8-.6-3-.7C15.6 0 15.2 0 12 0zm0 5.8a6.2 6.2 0 100 12.4 6.2 6.2 0 000-12.4zm0 10.2a4 4 0 110-8 4 4 0 010 8zm6.4-11.8a1.4 1.4 0 100 2.8 1.4 1.4 0 000-2.8z"/>
</svg>
